<svg width="24" height="24" viewBox="0 0 24 24" fill="none" xmlns="http://www.w3.org/2000/svg">
<path d="M12 22C17.5228 22 22 17.5228 22 12C22 6.47715 17.5228 2 12 2C6.47715 2 2 6.47715 2 12C2 17.5228 6.47715 22 12 22Z" stroke="white" stroke-width="2" stroke-linecap="round" stroke-linejoin="round"/>
<path d="M11.9444 6.292C12.7364 6.292 13.4084 6.43 13.9604 6.706C14.5124 6.982 14.9264 7.354 15.2024 7.822C15.4904 8.278 15.6344 8.776 15.6344 9.316C15.6344 9.796 15.5204 10.24 15.2924 10.648C15.0764 11.044 14.8004 11.416 14.4644 11.764C14.1284 12.112 13.7864 12.46 13.4384 12.808C13.0904 13.144 12.7904 13.492 12.5384 13.852C12.2864 14.2 12.1304 14.584 12.0704 15.004C12.0584 15.124 12.0104 15.214 11.9264 15.274C11.8424 15.334 11.6924 15.364 11.4764 15.364H11.2064C11.0144 15.364 10.8764 15.328 10.7924 15.256C10.7084 15.184 10.6664 15.082 10.6664 14.95C10.6664 14.542 10.7984 14.086 11.0624 13.582C11.3384 13.078 11.7224 12.58 12.2144 12.088C12.6704 11.632 13.0664 11.2 13.4024 10.792C13.7504 10.384 13.9244 9.952 13.9244 9.496C13.9244 8.872 13.7324 8.404 13.3484 8.092C12.9644 7.78 12.4004 7.624 11.6564 7.624C11.2724 7.624 10.9304 7.678 10.6304 7.786C10.3304 7.882 10.0784 7.984 9.87438 8.092C9.67038 8.188 9.52038 8.236 9.42438 8.236C9.36438 8.236 9.28638 8.176 9.19038 8.056C9.10638 7.936 9.02838 7.804 8.95638 7.66C8.88438 7.516 8.84838 7.402 8.84838 7.318C8.84838 7.162 8.94438 7.024 9.13638 6.904C9.34038 6.772 9.59838 6.664 9.91038 6.58C10.2224 6.484 10.5584 6.412 10.9184 6.364C11.2784 6.316 11.6204 6.292 11.9444 6.292ZM11.4584 17.056C11.9384 17.056 12.1784 17.188 12.1784 17.452V18.64C12.1784 18.904 11.9384 19.036 11.4584 19.036H11.1524C10.6724 19.036 10.4324 18.904 10.4324 18.64V17.452C10.4324 17.188 10.6724 17.056 11.1524 17.056H11.4584Z" fill="white"/>
<path d="M15.2024 7.822L14.7717 8.07599L14.7756 8.08255L14.7796 8.089L15.2024 7.822ZM15.2924 10.648L14.8559 10.4041L14.8534 10.4086L15.2924 10.648ZM14.4644 11.764L14.8241 12.1113L14.8241 12.1113L14.4644 11.764ZM13.4384 12.808L13.7857 13.1678L13.7919 13.1616L13.4384 12.808ZM12.5384 13.852L12.9434 14.1453L12.948 14.1387L12.5384 13.852ZM12.0704 15.004L11.5754 14.9333L11.5739 14.9437L11.5729 14.9542L12.0704 15.004ZM11.9264 15.274L11.6358 14.8671H11.6358L11.9264 15.274ZM10.7924 15.256L10.467 15.6356L10.467 15.6356L10.7924 15.256ZM11.0624 13.582L10.6238 13.3418L10.6195 13.35L11.0624 13.582ZM12.2144 12.088L12.5679 12.4416H12.5679L12.2144 12.088ZM13.4024 10.792L13.0219 10.4675L13.0164 10.4741L13.4024 10.792ZM13.3484 8.092L13.0331 8.48006L13.0331 8.48006L13.3484 8.092ZM10.6304 7.786L10.7828 8.26221L10.7913 8.25948L10.7997 8.25644L10.6304 7.786ZM9.87438 8.092L10.0873 8.54441L10.0979 8.5394L10.1083 8.53389L9.87438 8.092ZM9.19038 8.056L8.78076 8.34273L8.78994 8.35585L8.79994 8.36835L9.19038 8.056ZM8.95638 7.66L9.40359 7.43639L9.40359 7.43639L8.95638 7.66ZM9.13637 6.904L9.40141 7.32805L9.408 7.32378L9.13637 6.904ZM9.91038 6.58L10.0404 7.06281L10.0489 7.0605L10.0574 7.05789L9.91038 6.58ZM11.9444 6.792C12.6801 6.792 13.271 6.92034 13.7368 7.15321L14.184 6.25879C13.5457 5.93966 12.7927 5.792 11.9444 5.792V6.792ZM13.7368 7.15321C14.2146 7.39214 14.5511 7.7019 14.7717 8.07599L15.6331 7.56801C15.3017 7.0061 14.8101 6.57186 14.184 6.25879L13.7368 7.15321ZM14.7796 8.089C15.0171 8.46498 15.1344 8.87039 15.1344 9.316H16.1344C16.1344 8.68161 15.9637 8.09102 15.6251 7.555L14.7796 8.089ZM15.1344 9.316C15.1344 9.71301 15.0411 10.0727 14.8559 10.4041L15.7288 10.8919C15.9997 10.4073 16.1344 9.87899 16.1344 9.316H15.1344ZM14.8534 10.4086C14.6604 10.7625 14.4118 11.0986 14.1047 11.4167L14.8241 12.1113C15.189 11.7334 15.4924 11.3255 15.7313 10.8874L14.8534 10.4086ZM14.1047 11.4167C13.7707 11.7626 13.4308 12.1085 13.0848 12.4544L13.7919 13.1616C14.142 12.8115 14.486 12.4614 14.8241 12.1113L14.1047 11.4167ZM13.0911 12.4483C12.7223 12.8044 12.4009 13.1765 12.1288 13.5653L12.948 14.1387C13.1799 13.8075 13.4585 13.4836 13.7857 13.1677L13.0911 12.4483ZM12.1334 13.5587C11.8344 13.9716 11.647 14.4318 11.5754 14.9333L12.5654 15.0747C12.6137 14.7362 12.7383 14.4284 12.9433 14.1453L12.1334 13.5587ZM11.5729 14.9542C11.5722 14.9609 11.5724 14.9483 11.5842 14.9262C11.5969 14.9023 11.6158 14.8814 11.6358 14.8671L12.217 15.6809C12.4383 15.5228 12.5442 15.2904 12.5679 15.0538L11.5729 14.9542ZM11.6358 14.8671C11.6722 14.8411 11.689 14.844 11.6528 14.8512C11.6203 14.8577 11.5637 14.864 11.4764 14.864V15.864C11.704 15.864 11.9954 15.8392 12.217 15.6809L11.6358 14.8671ZM11.4764 14.864H11.2064V15.864H11.4764V14.864ZM11.2064 14.864C11.1393 14.864 11.1015 14.8575 11.0851 14.8532C11.069 14.849 11.088 14.8508 11.1178 14.8764L10.467 15.6356C10.6879 15.8249 10.9748 15.864 11.2064 15.864V14.864ZM11.1178 14.8764C11.1355 14.8916 11.1511 14.9129 11.1602 14.9351C11.1685 14.9551 11.1664 14.9633 11.1664 14.95H10.1664C10.1664 15.197 10.2506 15.4502 10.467 15.6356L11.1178 14.8764ZM11.1664 14.95C11.1664 14.6483 11.2648 14.2731 11.5053 13.814L10.6195 13.35C10.3319 13.8989 10.1664 14.4357 10.1664 14.95H11.1664ZM11.5009 13.8222C11.7499 13.3675 12.1027 12.9068 12.5679 12.4416L11.8608 11.7344C11.3421 12.2532 10.9268 12.7885 10.6238 13.3418L11.5009 13.8222ZM12.5679 12.4416C13.0329 11.9766 13.4402 11.5326 13.7883 11.1099L13.0164 10.4741C12.6926 10.8674 12.3078 11.2874 11.8608 11.7344L12.5679 12.4416ZM13.7828 11.1165C14.1937 10.6347 14.4244 10.0913 14.4244 9.496H13.4244C13.4244 9.81275 13.3071 10.1333 13.022 10.4675L13.7828 11.1165ZM14.4244 9.496C14.4244 8.76431 14.1942 8.13497 13.6637 7.70394L13.0331 8.48006C13.2706 8.67303 13.4244 8.97969 13.4244 9.496H14.4244ZM13.6637 7.70394C13.1554 7.29094 12.4597 7.124 11.6564 7.124V8.124C12.341 8.124 12.7734 8.26906 13.0331 8.48006L13.6637 7.70394ZM11.6564 7.124C11.2261 7.124 10.8252 7.18446 10.461 7.31556L10.7997 8.25644C11.0356 8.17154 11.3187 8.124 11.6564 8.124V7.124ZM10.478 7.30979C10.1592 7.41179 9.87803 7.52432 9.64043 7.65011L10.1083 8.53389C10.2787 8.44368 10.5015 8.35221 10.7828 8.26221L10.478 7.30979ZM9.66148 7.63959C9.5715 7.68193 9.50412 7.70855 9.45649 7.72379C9.40348 7.74075 9.39822 7.736 9.42438 7.736V8.736C9.64292 8.736 9.88323 8.64043 10.0873 8.54441L9.66148 7.63959ZM9.42438 7.736C9.49303 7.736 9.54516 7.75308 9.57536 7.76621C9.60516 7.77917 9.6221 7.79189 9.62573 7.79469C9.63106 7.79879 9.61607 7.78773 9.58081 7.74365L8.79994 8.36835C8.86068 8.44427 8.93269 8.52321 9.01602 8.58731C9.091 8.64499 9.23323 8.736 9.42438 8.736V7.736ZM9.59999 7.76927C9.53136 7.67122 9.46569 7.56059 9.40359 7.43639L8.50916 7.88361C8.59106 8.04741 8.68139 8.20078 8.78076 8.34273L9.59999 7.76927ZM9.40359 7.43639C9.3756 7.38042 9.36007 7.34095 9.35217 7.31593C9.3436 7.28882 9.34838 7.29235 9.34838 7.318H8.34837C8.34837 7.52235 8.42867 7.72262 8.50916 7.88361L9.40359 7.43639ZM9.34838 7.318C9.34838 7.33124 9.34619 7.34577 9.34168 7.35957C9.33728 7.37305 9.33227 7.38095 9.33083 7.38303C9.32966 7.38471 9.33268 7.37994 9.344 7.36979C9.35539 7.35958 9.37368 7.34531 9.40137 7.328L8.87138 6.48C8.60483 6.64659 8.34837 6.91932 8.34837 7.318H9.34838ZM9.408 7.32378C9.55666 7.22759 9.76307 7.13746 10.0404 7.06281L9.78039 6.09719C9.43368 6.19054 9.12409 6.31641 8.86475 6.48421L9.408 7.32378ZM10.0574 7.05789C10.3402 6.97088 10.6489 6.90436 10.9845 6.85961L10.8523 5.86839C10.4679 5.91964 10.1045 5.99712 9.76333 6.10211L10.0574 7.05789ZM10.9845 6.85961C11.3251 6.81419 11.6449 6.792 11.9444 6.792V5.792C11.5958 5.792 11.2316 5.81781 10.8523 5.86839L10.9845 6.85961ZM11.4584 17.556C11.5569 17.556 11.6305 17.5629 11.6832 17.5726C11.7091 17.5773 11.7278 17.5823 11.7404 17.5865C11.7531 17.5907 11.758 17.5935 11.7574 17.5931C11.7547 17.5916 11.7289 17.5761 11.7058 17.5379C11.6821 17.4988 11.6784 17.4643 11.6784 17.452H12.6784C12.6784 17.3077 12.6447 17.1577 12.561 17.0196C12.4778 16.8824 12.362 16.7844 12.2393 16.7169C12.009 16.5902 11.7278 16.556 11.4584 16.556V17.556ZM11.6784 17.452V18.64H12.6784V17.452H11.6784ZM11.6784 18.64C11.6784 18.6277 11.6821 18.5932 11.7058 18.5541C11.7289 18.5159 11.7547 18.5004 11.7574 18.4989C11.758 18.4985 11.7531 18.5013 11.7404 18.5055C11.7278 18.5097 11.7091 18.5147 11.6832 18.5194C11.6305 18.5291 11.5569 18.536 11.4584 18.536V19.536C11.7278 19.536 12.009 19.5018 12.2393 19.3751C12.362 19.3076 12.4778 19.2096 12.561 19.0724C12.6447 18.9343 12.6784 18.7843 12.6784 18.64H11.6784ZM11.4584 18.536H11.1524V19.536H11.4584V18.536ZM11.1524 18.536C11.0539 18.536 10.9803 18.5291 10.9275 18.5194C10.9016 18.5147 10.883 18.5097 10.8703 18.5055C10.8576 18.5013 10.8527 18.4985 10.8533 18.4989C10.856 18.5004 10.8818 18.5159 10.905 18.5541C10.9287 18.5932 10.9324 18.6277 10.9324 18.64H9.93238C9.93238 18.7843 9.96606 18.9343 10.0498 19.0724C10.1329 19.2096 10.2487 19.3076 10.3714 19.3751C10.6017 19.5018 10.8829 19.536 11.1524 19.536V18.536ZM10.9324 18.64V17.452H9.93238V18.64H10.9324ZM10.9324 17.452C10.9324 17.4643 10.9287 17.4988 10.905 17.5379C10.8818 17.5761 10.856 17.5916 10.8533 17.5931C10.8527 17.5935 10.8576 17.5907 10.8703 17.5865C10.883 17.5823 10.9016 17.5773 10.9275 17.5726C10.9803 17.5629 11.0539 17.556 11.1524 17.556V16.556C10.8829 16.556 10.6017 16.5902 10.3714 16.7169C10.2487 16.7844 10.1329 16.8824 10.0498 17.0196C9.96606 17.1577 9.93238 17.3077 9.93238 17.452H10.9324ZM11.1524 17.556H11.4584V16.556H11.1524V17.556Z" fill="white"/>
</svg>
