<svg width="27" height="27" viewBox="0 0 27 27" fill="none" xmlns="http://www.w3.org/2000/svg">
<path d="M15.8667 2.18665H7.12002C6.54008 2.18665 5.98389 2.41703 5.57381 2.82711C5.16373 3.23718 4.93335 3.79337 4.93335 4.37331V21.8666C4.93335 22.4466 5.16373 23.0028 5.57381 23.4129C5.98389 23.8229 6.54008 24.0533 7.12002 24.0533H20.24C20.82 24.0533 21.3761 23.8229 21.7862 23.4129C22.1963 23.0028 22.4267 22.4466 22.4267 21.8666V8.74664L15.8667 2.18665Z" stroke="#CAD3DD" stroke-width="2" stroke-linecap="round" stroke-linejoin="round"/>
<path d="M15.8666 2.18665V8.74665H22.4266" stroke="#CAD3DD" stroke-width="2" stroke-linecap="round" stroke-linejoin="round"/>
<path d="M18.0533 14.2133H9.30664" stroke="#CAD3DD" stroke-width="2" stroke-linecap="round" stroke-linejoin="round"/>
<path d="M18.0533 18.5867H9.30664" stroke="#CAD3DD" stroke-width="2" stroke-linecap="round" stroke-linejoin="round"/>
<path d="M11.4933 9.84003H10.4H9.30664" stroke="#CAD3DD" stroke-width="2" stroke-linecap="round" stroke-linejoin="round"/>
</svg>
